<?xml version="1.0" encoding="UTF-8" standalone="no"?>
<!-- Created with Inkscape (http://www.inkscape.org/) -->

<svg
   xmlns:dc="http://purl.org/dc/elements/1.1/"
   xmlns:cc="http://creativecommons.org/ns#"
   xmlns:rdf="http://www.w3.org/1999/02/22-rdf-syntax-ns#"
   xmlns:svg="http://www.w3.org/2000/svg"
   xmlns="http://www.w3.org/2000/svg"
   xmlns:sodipodi="http://sodipodi.sourceforge.net/DTD/sodipodi-0.dtd"
   xmlns:inkscape="http://www.inkscape.org/namespaces/inkscape"
   version="1.1"
   id="svg825"
   xml:space="preserve"
   width="160"
   height="100"
   viewBox="0 0 160 100"
   sodipodi:docname="SDP_Logo.svg"
   inkscape:version="0.92.3 (2405546, 2018-03-11)"><metadata
     id="metadata831"><rdf:RDF><cc:Work
         rdf:about=""><dc:format>image/svg+xml</dc:format><dc:type
           rdf:resource="http://purl.org/dc/dcmitype/StillImage" /><dc:title></dc:title></cc:Work></rdf:RDF></metadata><defs
     id="defs829"><clipPath
       clipPathUnits="userSpaceOnUse"
       id="clipPath841"><path
         d="M 0,408 H 2020 V 0 H 0 Z"
         id="path839"
         inkscape:connector-curvature="0" /></clipPath></defs><sodipodi:namedview
     pagecolor="#ffffff"
     bordercolor="#666666"
     borderopacity="1"
     objecttolerance="10"
     gridtolerance="10"
     guidetolerance="10"
     inkscape:pageopacity="0"
     inkscape:pageshadow="2"
     inkscape:window-width="1920"
     inkscape:window-height="1017"
     id="namedview827"
     showgrid="false"
     inkscape:zoom="5.6624552"
     inkscape:cx="98.242053"
     inkscape:cy="51.350967"
     inkscape:window-x="-8"
     inkscape:window-y="-8"
     inkscape:window-maximized="1"
     inkscape:current-layer="g837" /><g
     id="g833"
     inkscape:groupmode="layer"
     inkscape:label="SDP_Logo_Blue"
     transform="matrix(1.3333333,0,0,-1.3333333,0,100)"><g
       clip-path="url(#clipPath841)"
       id="g837"><g
         id="g1641"
         transform="matrix(0.32151806,0,0,0.32151806,-10.235169,-26.855134)"><g
           id="g843"
           transform="translate(222.8398,311.1299)"><path
             d="m 0,0 0.334,-10.391 7.333,-1.334 5.557,-7.99 -0.557,-7.035 11.178,-4.385 16.084,-20.058 -2.759,-15.584 -0.003,-24.614 c 0,0 45.86,-53.496 45.833,-53.5 l -8.473,-6.308 3.239,-31.777 28.851,-28.485 V 0 Z"
             style="fill:#0b315b;fill-opacity:1;fill-rule:nonzero;stroke:none"
             id="path845"
             inkscape:connector-curvature="0" /></g><g
           id="g847"
           transform="translate(215.7412,311.3203)"><path
             d="m 0,0 -0.5,-11.458 -8.75,-5.521 -1.542,-9.885 2.542,-3.464 -20.638,-15.25 -2.926,-22.764 3.708,-5.555 -0.334,-13.805 -57.143,-29.631 18.989,-19.96 -6.783,-51.171 -34.759,-14.049 0.016,202.43 z"
             style="fill:#0b315b;fill-opacity:1;fill-rule:nonzero;stroke:none"
             id="path849"
             inkscape:connector-curvature="0" /></g><g
           id="g851"
           transform="translate(196.457,228.3477)"><path
             d="m 0,0 15.232,7.807 c 0,1.543 0.655,21.635 0.655,21.635 0,0 0.772,6.544 -4.629,5.156 C 7.076,33.522 4.288,30.129 3.223,28.668 2.968,28.319 2.646,27.896 2.441,27.633 2.019,27.093 1.294,25.856 1.08,23.505 0.771,20.11 0,0 0,0"
             style="fill:#0b315b;fill-opacity:1;fill-rule:nonzero;stroke:none"
             id="path853"
             inkscape:connector-curvature="0" /></g><g
           id="g855"
           transform="translate(221,241.4053)"><path
             d="m 0,0 13.763,6.997 3.71,-4.022 -0.571,14.831 c 0,0 -0.321,3.596 -4.641,6.219 -4.321,2.623 -9.371,0 -9.371,0 0,0 -2.89,-1.543 -2.89,-6.017 z"
             style="fill:#0b315b;fill-opacity:1;fill-rule:nonzero;stroke:none"
             id="path857"
             inkscape:connector-curvature="0" /></g><g
           id="g859"
           transform="translate(245,236.1562)"><path
             d="m 0,0 8.131,-8.86 c 0,0 0.324,18.846 0.17,19.464 -0.155,0.618 0.047,4.946 -1.805,7.719 -1.851,2.774 -3.629,3.888 -3.629,3.888 0,0 -2.867,3.052 -2.867,-2.349 z"
             style="fill:#0b315b;fill-opacity:1;fill-rule:nonzero;stroke:none"
             id="path861"
             inkscape:connector-curvature="0" /></g><g
           id="g863"
           transform="translate(176.9248,159.5322)"><path
             d="M 0,0 C -4.664,4.988 -0.846,16.136 8.527,24.898 17.9,33.661 29.279,36.721 33.943,31.731 38.606,26.743 34.789,15.596 25.416,6.833 16.043,-1.93 4.663,-4.988 0,0"
             style="fill:#0b315b;fill-opacity:1;fill-rule:nonzero;stroke:none"
             id="path865"
             inkscape:connector-curvature="0" /></g><g
           id="g867"
           transform="translate(279.9814,151.0117)"><path
             d="m 0,0 c 3.151,1.525 1.836,10.757 -2.938,20.617 -4.774,9.862 -11.199,16.618 -14.349,15.093 -3.151,-1.525 -1.836,-10.756 2.937,-20.617 0.278,-0.573 0.562,-1.133 0.85,-1.685 L -0.869,-0.191 C -0.561,-0.177 -0.266,-0.128 0,0"
             style="fill:#0b315b;fill-opacity:1;fill-rule:nonzero;stroke:none"
             id="path869"
             inkscape:connector-curvature="0" /></g><g
           id="g871"
           transform="translate(107.4336,97.5352)"><path
             d="M 0,0 150.806,59.644 222.03,-8.535 H 0.172 Z"
             style="fill:#0b315b;fill-opacity:1;fill-rule:nonzero;stroke:none"
             id="path873"
             inkscape:connector-curvature="0" /></g></g></g></g></svg>